<?xml version="1.0" encoding="UTF-8"?>
<svg id="Camada_2" data-name="Camada 2" xmlns="http://www.w3.org/2000/svg" viewBox="0 0 113.15 87.23">
  <defs>
    <style>
      .cls-1 {
        fill: #e3e1e0;
        stroke-width: .75px;
      }

      .cls-1, .cls-2 {
        stroke: #0d0802;
        stroke-linecap: round;
        stroke-linejoin: round;
      }

      .cls-3 {
        fill: #0d0802;
      }

      .cls-2 {
        fill: #948f8d;
      }
    </style>
  </defs>
  <g id="Cerberu">
    <g>
      <path class="cls-1" d="M48.47,51.01c1.79,18.01,2.56,38.86,5.1,35.12,6.05-8.91,11.59-28.96,3.74-40.4"/>
      <path class="cls-1" d="M71.08,47.64c5.28-1.77,9.73.36,11.27,4.62.67,1.86,1.1,3.88,1.3,5.88,4.62,1.82,3.61,9.35,3.61,13.08,0,5.64-4.01,15.64-6.16,15.64-1.82,0-1.29-4.2-1.29-12.47,0-.95-.13-2.33-.28-3.9-3.5.52-10.69-5.59-13.18-12.46"/>
      <path class="cls-1" d="M50.49,56.77c-2.93-4.38-2.8-10.34.71-14.63,4.3-5.25,12.05-6.02,17.3-1.72,5.43,4.45,9.48,4.17,12.73,3.3,6.56-1.75,13.3,2.15,15.05,8.71,1.75,6.56-2.15,13.3-8.71,15.05-12.26,3.27-24.24.49-34.65-8.04-.96-.79-1.77-1.69-2.43-2.68Z"/>
      <path class="cls-1" d="M76.31,20.92c0-.33-.27-.6-.6-.61h-.28c-1.79-.09-3.27-1.15-3.92-2.85-.23-.59-.34-1.21-.34-1.83,0-1.24.46-2.41,1.26-3.21.12-.12.18-.27.18-.43s-.06-.31-.18-.43-.27-.18-.43-.18-.32.06-.43.18l-8.94,8.94c-.12.12-.18.27-.18.43v12.64c0,.34.27.61.61.61.16,0,.31-.06.43-.18.12-.12.18-.27.18-.43,0-2.22.97-3.94,2.6-4.62,1.72-.71,3.85-.1,5.54,1.6.12.12.27.18.43.18s.32-.06.43-.18c.12-.12.18-.27.18-.43s-.06-.31-.18-.43c-1.25-1.25-1.94-2.68-1.94-4.04,0-.51.09-1.01.29-1.47.68-1.65,2.42-2.63,4.66-2.63.34,0,.61-.27.61-.6h0Z"/>
      <path class="cls-1" d="M87.67,47.64c5.28-1.77,9.73.36,11.27,4.62.67,1.86,1.1,3.88,1.3,5.88,4.62,1.82,3.61,9.35,3.61,13.08,0,5.64-4.01,15.64-6.16,15.64-1.82,0-1.29-4.2-1.29-12.47,0-.95-.13-2.33-.28-3.9-3.5.52-10.69-5.59-13.18-12.46"/>
      <path class="cls-1" d="M97.5,45.02c1.87,1.87,13.18.38,13.02-8.1-1.41,1.29-3.82.95-4.5-.42,5.2.89,8.74-7.13,5.55-9.73-.84,1.5-2.57,2.23-4.04,1.93,5.58-2.97,2.12-13.69-4.32-13.34,1.29,1.29,1.41,4.57-.12,6.44,1.05-6.44-8.49-9.19-11.12-2.81,8.55,1.64,12.97,18.59,5.53,26.03Z"/>
      <path class="cls-1" d="M58.57,55.99c1.79,18.01,1.79,33.88,4.33,30.14,6.05-8.91,11.59-28.96,3.74-40.4"/>
      <g>
        <path class="cls-1" d="M29.2,54.35l-5.39,2.89c-8.72,4.69-19-1.68-22.09-7.42-3.04-5.66-1.05-7.86,7.12-12.25l8.8-4.73c5.93-3.2,13.33-.97,16.53,4.97,3.19,5.94.97,13.34-4.97,16.53Z"/>
        <path class="cls-1" d="M26.82,34.48c-1.55-4.26,7.09-11.56,12.54-10.63.64.11,1,.78.77,1.39-1.88,5.02.93,7.11-1.22,11.73,3.18,1.17,6.32,4.25,6.84,7.57.04.25-.21.44-.44.37-1.78-.59-4.54-.62-6.17.04,3.43.7,6.03,3.33,4.99,7.48-.06.25-.37.33-.56.16-1.95-1.7-4.88-3.03-7.27-3.03,1.38.75,2.17,2.29,2.22,3.66,0,.25-.25.43-.48.33-1.17-.5-4.34-1.68-6.42-.93"/>
        <path class="cls-1" d="M15.47,42.57c-.98,7.06-1.67,7.06-2.71,4.19-1.17-3.24-1.77-3.08-2.45,1.72-5.16,2.07-5.88,4.83-4.69,5.9"/>
        <path class="cls-1" d="M14.49,34.88c-2.14-3.99,5.36-12.46,10.88-12.32.64.02,1.1.63.96,1.26-1.14,5.24,1.94,6.9.47,11.78,3.31.7,6.86,3.3,7.86,6.51.07.24-.14.47-.39.43-1.85-.33-4.58.04-6.1.92,3.5.2,6.44,2.43,6.01,6.69-.03.25-.32.38-.53.24-2.17-1.4-5.26-2.3-7.63-1.95,1.47.55,2.48,1.96,2.72,3.3.04.25-.18.46-.43.4-1.23-.33-4.54-1.04-6.48,0"/>
      </g>
      <g>
        <path class="cls-1" d="M27.01,12.69C24.87,8.7,32.37.23,37.9.38c.64.02,1.1.63.96,1.26-1.14,5.24,1.94,6.9.47,11.78,3.31.7,6.86,3.3,7.86,6.51.07.24-.14.47-.39.43-1.85-.33-4.58.04-6.1.92,3.5.2,6.44,2.43,6.01,6.69-.03.25-.32.38-.53.24-2.17-1.4-5.26-2.3-7.63-1.95,1.47.55,2.48,1.96,2.72,3.3.04.25-.18.46-.43.4-1.23-.33-4.54-1.04-6.48,0"/>
        <path class="cls-1" d="M41.72,32.16l-5.39,2.89c-8.72,4.69-19-1.68-22.09-7.42s-1.05-7.86,7.12-12.25l8.8-4.73c5.93-3.2,13.33-.97,16.53,4.97,3.19,5.94.97,13.34-4.97,16.53Z"/>
        <path class="cls-1" d="M36.92,14.03c-1.55-4.26,7.09-11.56,12.54-10.63.64.11,1,.78.77,1.39-1.88,5.02.93,7.11-1.22,11.73,3.18,1.17,6.32,4.25,6.84,7.57.04.25-.21.44-.44.37-1.78-.59-4.54-.62-6.17.04,3.43.7,6.03,3.33,4.99,7.48-.06.25-.37.33-.56.16-1.95-1.7-4.88-3.03-7.27-3.03,1.38.75,2.17,2.29,2.22,3.66,0,.25-.25.43-.48.33-1.17-.5-4.34-1.68-6.42-.93"/>
        <path class="cls-1" d="M37.63,24.45c-2.74,7.18-2.95,7.13-3.72,3.88-.87-3.68-1.2-3.65-2.62,2.12-8.65,6.89-9.33-1.32-13.15,1.74"/>
      </g>
      <g>
        <path class="cls-1" d="M36.8,50.49c-3.2-3.2,1.54-13.47,6.87-14.93.62-.17,1.23.29,1.28.93.42,5.35,3.85,6.05,3.85,11.15,3.37-.28,7.52,1.18,9.4,3.97.14.21,0,.49-.25.52-1.87.22-4.38,1.35-5.57,2.64,3.41-.82,6.87.47,7.68,4.67.05.25-.19.45-.44.38-2.48-.72-5.7-.68-7.87.33,1.57.1,2.94,1.16,3.56,2.38.11.23-.04.49-.3.5-1.28.04-4.64.31-6.21,1.87"/>
        <path class="cls-3" d="M47.5,64.1c.36.67-.09,2.98-.53,3.62-4.91-4.12,1.36,1.78-2.47,7.4,7.54.43,15.8-12.86,6.99-18.29-9.79-6.03-17.32,14.15-17.72,15.25,1.71-3.81,7.37-8.19,13.73-7.97Z"/>
        <path class="cls-2" d="M50.08,70.63c-4.06-1.02-7.62-.13-6.77,6.77.27,2.19-1.14,3.41-2.83,3.54l-.67-2.54-.7,2.41c-2.27-.59-4.4-3.09-3.36-7.79,2.09-9.36,9.19-14.34,17-10.13,4.16,2.24-2.68,7.74-2.68,7.74Z"/>
        <path class="cls-1" d="M28.87,68.48c1.63,1.63,3.27,2.81,4.88,3.64,3.41-4.64,6.71,4.21,14.16-8.64,1.66,3.11,2.08,2.98,2.41-4.35,1.97,3.12,1.77,6.24-.08,9.47-3.04-4.63-1.21.1-2.07,2.59-1.39,4.02-4.52-.4-3.63,4,9.41,2.98,11.94-10.28,11.94-10.28,4.77-4.77,4.77-12.49,0-17.26-4.77-4.77-12.49-4.77-17.26,0l-7.06,7.06c-6.56,6.55-7.83,9.23-3.29,13.78Z"/>
        <path class="cls-1" d="M46.67,48.91c-2.71-3.63,3.45-13.11,8.94-13.79.64-.08,1.18.46,1.14,1.11-.35,5.35,2.94,6.54,2.21,11.58,3.38.2,7.28,2.25,8.73,5.27.11.22-.07.48-.32.48-1.88-.05-4.53.71-5.89,1.81,3.49-.32,6.73,1.45,6.93,5.72.01.26-.26.42-.49.31-2.36-1.06-5.54-1.49-7.84-.8,1.54.32,2.74,1.57,3.18,2.86.08.24-.11.48-.37.46-1.27-.14-4.64-.36-6.41.96"/>
      </g>
    </g>
  </g>
</svg>