<?xml version="1.0" encoding="UTF-8"?>
<svg id="Camada_2" data-name="Camada 2" xmlns="http://www.w3.org/2000/svg" xmlns:xlink="http://www.w3.org/1999/xlink" viewBox="0 0 122.06 107.64">
  <defs>
    <style>
      .cls-1 {
        opacity: .75;
      }

      .cls-2, .cls-3, .cls-4 {
        fill: none;
      }

      .cls-2, .cls-5, .cls-6 {
        stroke-miterlimit: 10;
      }

      .cls-2, .cls-5, .cls-6, .cls-4 {
        stroke: #0d0802;
      }

      .cls-2, .cls-4 {
        stroke-width: 1.74px;
      }

      .cls-3 {
        stroke: #fff;
        stroke-dasharray: 2 24 1 32 2 24;
      }

      .cls-3, .cls-5, .cls-6 {
        stroke-width: .75px;
      }

      .cls-3, .cls-4 {
        stroke-linecap: round;
        stroke-linejoin: round;
      }

      .cls-7 {
        fill: #fff;
      }

      .cls-5 {
        fill: #948f8d;
      }

      .cls-6 {
        fill: #e3e1e0;
      }

      .cls-8 {
        clip-path: url(#clippath);
      }

      .cls-9 {
        opacity: .5;
      }

      .cls-10 {
        fill: #8b0d1b;
      }
    </style>
    <clipPath id="clippath">
      <path class="cls-10" d="M83.07,104.03h-46.06c-2.74,0-4.95-2.22-4.95-4.95V34.11s0-12.51,0-12.51c0-2.74,2.22-4.95,4.95-4.95h46.06c2.74,0,4.95,2.22,4.95,4.95v77.49c0,2.74-2.22,4.95-4.95,4.95Z"/>
    </clipPath>
  </defs>
  <g id="Espelho_corrompido" data-name="Espelho corrompido">
    <g>
      <g>
        <g id="corpo_diabo_1" data-name="corpo diabo 1">
          <polygon class="cls-5" points="15.02 28.39 26.15 28.39 29.72 41.78 34.36 28.39 46.81 28.39 28.82 63.04 15.02 28.39"/>
          <line class="cls-5" x1="42.34" y1="28.39" x2="39.3" y2="34.31"/>
          <line class="cls-5" x1="18.8" y1="28.39" x2="20.8" y2="33.65"/>
        </g>
        <path class="cls-5" d="M3.92,57.95c-.18.18-.19.48,0,.68l.16.16c.95,1.05,1.18,2.46.6,3.76-.2.45-.48.86-.83,1.21-.69.69-1.6,1.09-2.49,1.09-.13,0-.25.05-.34.14s-.14.21-.14.34.05.25.14.34.21.14.34.14h9.94c.13,0,.25-.05.34-.14l7.03-7.03c.19-.19.19-.49,0-.68-.09-.09-.21-.14-.34-.14-.13,0-.25.05-.34.14-1.23,1.23-2.73,1.65-4.02,1.12-1.36-.56-2.2-2.08-2.19-3.97,0-.13-.05-.25-.14-.34s-.21-.14-.34-.14c-.13,0-.25.05-.34.14s-.14.21-.14.34c0,1.39-.41,2.57-1.17,3.33-.28.28-.61.51-.98.66-1.29.54-2.81.12-4.06-1.13-.19-.19-.49-.19-.68,0h0Z"/>
        <path id="cabeca" class="cls-5" d="M40.1,81.79c0-5.79-4.7-10.49-10.49-10.49s-10.15,4.7-10.15,10.49,4.36,10.49,10.15,10.49,10.49-4.7,10.49-10.49Z"/>
      </g>
      <g>
        <path class="cls-10" d="M83.07,104.03h-46.06c-2.74,0-4.95-2.22-4.95-4.95V34.11s0-12.51,0-12.51c0-2.74,2.22-4.95,4.95-4.95h46.06c2.74,0,4.95,2.22,4.95,4.95v77.49c0,2.74-2.22,4.95-4.95,4.95Z"/>
        <g class="cls-8">
          <g class="cls-9">
            <g class="cls-1">
              <rect class="cls-10" x="39.84" y="3.1" width="27.95" height="110.91" transform="translate(-25.64 55.2) rotate(-45)"/>
              <rect class="cls-10" x="71.03" y="-14.13" width="5.99" height="110.91" transform="translate(-7.54 64.45) rotate(-45)"/>
            </g>
            <g>
              <path class="cls-7" d="M24.48,10.26s-.02.02-.06.06h0s-.09.09-.16.16h0c-.07.07-.14.14-.23.23h0c-.08.08-.17.17-.26.26h0c-.09.09-.18.18-.26.26h0c-.08.08-.16.16-.23.23h0c-.07.07-.12.12-.16.16h0s-.06.06-.06.06h0c-.15.15-.15.38,0,.53.07.07.17.11.27.11s.19-.04.27-.11l1.41-1.41-.53-.53h0ZM10.87,33.66c-.1,0-.19.04-.27.11-.15.15-.15.38,0,.53l.71.71c.07.07.17.11.27.11s.19-.04.27-.11c.15-.15.15-.38,0-.53l-.71-.71c-.07-.07-.17-.11-.27-.11h0ZM45.52,68.31c-.1,0-.19.04-.27.11-.15.15-.15.38,0,.53l2.12,2.12c.07.07.17.11.27.11s.19-.04.27-.11c.15-.15.15-.38,0-.53l-2.12-2.12c-.07-.07-.17-.11-.27-.11h0ZM64.61,87.4c-.1,0-.19.04-.27.11-.15.15-.15.38,0,.53l1.41,1.41c.07.07.17.11.27.11s.19-.04.27-.11c.15-.15.15-.38,0-.53l-1.41-1.41c-.07-.07-.17-.11-.27-.11h0ZM88.83,100.25c-.1,0-.19.04-.27.11l-.71.71c-.15.15-.15.38,0,.53.07.07.17.11.27.11s.19-.04.27-.11l.71-.71c.15-.15.15-.38,0-.53-.07-.07-.17-.11-.27-.11h0ZM78.78,64.72c-.1,0-.19.04-.27.11-.15.15-.15.38,0,.53l2.12,2.12c.07.07.17.11.27.11s.19-.04.27-.11c.15-.15.15-.38,0-.53l-1.64-1.64s0,0,0,0h0s0,0,0,0h0c-.28-.28-.47-.48-.47-.48-.07-.07-.17-.11-.27-.11h0ZM60.4,46.33c-.1,0-.19.04-.27.11-.15.15-.15.38,0,.53l1.41,1.41c.07.07.17.11.27.11s.19-.04.27-.11c.15-.15.15-.38,0-.53,0,0-.05-.05-.13-.13h0s0,0-.01-.01h0s0,0,0,0h0s0,0,0,0h0s0,0,0,0h0s0,0,0,0h0s0,0,0,0l-1.25-1.25c-.07-.07-.17-.11-.26-.11h0ZM37.06,23c-.1,0-.19.04-.27.11-.15.15-.15.38,0,.53l.71.71c.07.07.17.11.27.11s.19-.04.27-.11c.15-.15.15-.38,0-.53l-.71-.71c-.07-.07-.17-.11-.27-.11h0Z"/>
              <path class="cls-7" d="M36.93.8s0,0-.02.02h0s-.03.03-.04.04h0s-.04.04-.07.07h0s-.06.06-.09.09h0s-.07.07-.11.11h0s-.08.08-.12.12h0s-.08.08-.13.13h0s-.09.09-.13.13h0s-.09.09-.13.13h0s-.09.09-.13.13h0s-.08.08-.12.12h0s-.07.07-.11.11h0s-.06.06-.09.09h0s-.05.05-.07.07h0s-.03.03-.04.04h0s-.02.02-.02.02h0c-.15.15-.15.38,0,.53.07.07.17.11.27.11s.19-.04.27-.11l1.41-1.41-.53-.53h0ZM54.37,24.2c-.1,0-.19.04-.27.11-.15.15-.15.38,0,.53l.12.12s0,0,0,0h0s0,0,0,0h0s0,0,0,0h0c.2.21.58.58.58.58.07.07.17.11.27.11s.19-.04.27-.11c.15-.15.15-.38,0-.53l-.71-.71c-.07-.07-.17-.11-.27-.11h0ZM89.02,58.85c-.1,0-.19.04-.27.11-.15.15-.15.38,0,.53l2.12,2.12c.07.07.17.11.26.11s.19-.04.27-.11c.15-.15.15-.38,0-.53l-2.12-2.12c-.07-.07-.17-.11-.27-.11h0ZM108.11,77.94c-.1,0-.19.04-.27.11-.15.15-.15.38,0,.53l1.42,1.42c.07.07.17.11.27.11s.19-.04.27-.11c.15-.15.15-.38,0-.53l-1.41-1.41c-.07-.07-.17-.11-.27-.11h0ZM96.23,60.27c-.1,0-.19.04-.27.11-.15.15-.15.38,0,.53l.71.71c.07.07.17.11.27.11s.19-.04.27-.11c.15-.15.15-.38,0-.53l-.43-.43c-.15-.15-.28-.28-.28-.28-.07-.07-.17-.11-.27-.11h0ZM60.17,24.2c-.1,0-.19.04-.27.11-.15.15-.15.38,0,.53l2.12,2.12c.07.07.17.11.27.11s.19-.04.27-.11c.15-.15.15-.38,0-.53l-.68-.68h0s0,0,0,0c-.62-.62-1.44-1.44-1.44-1.44-.07-.07-.17-.11-.27-.11h0ZM41.79,5.82c-.1,0-.19.04-.27.11-.15.15-.15.38,0,.53l1.41,1.41c.07.07.17.11.27.11s.19-.04.27-.11c.15-.15.15-.38,0-.53l-1.41-1.41c-.07-.07-.17-.11-.27-.11h0Z"/>
            </g>
          </g>
        </g>
      </g>
      <g>
        <path class="cls-4" d="M18.32,57.81c-.13,0-.25.05-.34.14-1.23,1.23-2.73,1.65-4.02,1.12-1.36-.56-2.2-2.08-2.19-3.97,0-.13-.05-.25-.14-.34-.09-.09-.21-.14-.34-.14-.13,0-.25.05-.34.14-.09.09-.14.21-.14.34,0,1.39-.41,2.57-1.17,3.33-.28.28-.61.51-.98.66-1.29.54-2.81.12-4.06-1.13-.19-.19-.49-.19-.68,0h0c-.18.18-.19.48,0,.68l.16.16c.95,1.05,1.18,2.46.6,3.76-.2.45-.48.86-.83,1.21-.69.69-1.6,1.09-2.49,1.09-.13,0-.25.05-.34.14-.09.09-.14.21-.14.34s.05.25.14.34.21.14.34.14h9.94c.13,0,.25-.05.34-.14l7.03-7.03c.19-.19.19-.49,0-.68-.09-.09-.21-.14-.34-.14Z"/>
        <path class="cls-4" d="M91.97,57.82c-1.24,0-2.6,1.47-3.95,3.78v-13.4c1.33.62,2.82.97,4.38.97,5.79,0,10.15-4.7,10.15-10.49s-4.36-10.49-10.15-10.49c-1.57,0-3.05.35-4.38.97v-7.56c0-2.74-2.22-4.95-4.95-4.95h-46.06c-2.74,0-4.95,2.22-4.95,4.95v13.47l-2.33,6.72-3.57-13.39h-11.12l13.79,34.65,3.23-6.22v14.78c-.78-.19-1.6-.3-2.44-.3-5.79,0-10.15,4.7-10.15,10.49s4.36,10.49,10.15,10.49c.84,0,1.66-.11,2.44-.3v7.09c0,2.74,2.22,4.95,4.95,4.95h46.06c2.74,0,4.95-2.22,4.95-4.95v-15.07c1.53-1.94,3.01-3.95,4.21-5.73,3.91,5.84,10.22,14.79,11.97,14.17,2.71-.97-6.2-34.63-12.22-34.63Z"/>
        <path class="cls-4" d="M121.19,55.54c0-.92-.36-1.78-1.01-2.43-.65-.65-1.51-1.01-2.43-1.01h-6.21c-.11,0-.23,0-.34.02-.04,0-.07,0-.14.02h-.03c-.05.01-.11.02-.16.03-.04,0-.09.02-.13.03l-.06.02s-.09.02-.13.03c-.04.01-.09.03-.13.04l-.06.02s-.08.03-.12.05c-.04.02-.08.04-.15.07h-.03s-.08.05-.13.08c-.04.02-.07.04-.11.06l-.06.04s-.08.05-.12.07c-.04.03-.08.06-.12.09l-.05.04s-.06.05-.09.07c-.09.07-.17.15-.25.23l-4.39,4.39c-1.34,1.34-1.34,3.52,0,4.86.99.99,2.43,1.26,3.68.77.17.39.41.74.72,1.05.65.65,1.51,1.01,2.43,1.01,1.39,0,2.61-.83,3.15-2.05,1.25.49,2.69.21,3.68-.77.99-.99,1.26-2.43.77-3.68,1.23-.54,2.05-1.75,2.05-3.15Z"/>
        <g>
          <path class="cls-2" d="M79.62,92.27c1.66.23,8.7-8.14,12.61-13.98,3.91,5.84,10.22,14.79,11.97,14.17,2.71-.97-6.2-34.63-12.22-34.63s-14.72,34.12-12.35,34.45Z"/>
          <path class="cls-2" d="M118.36,62.37c.99-.99,1.26-2.43.77-3.68,1.23-.54,2.05-1.75,2.05-3.15,0-.92-.36-1.78-1.01-2.43s-1.51-1.01-2.43-1.01h-6.21c-.11,0-.23,0-.34.02-.04,0-.07,0-.14.02h-.03c-.05.01-.11.02-.16.03-.04,0-.09.02-.13.03l-.06.02s-.09.02-.13.03c-.04.01-.09.03-.13.04l-.06.02s-.08.03-.12.05c-.04.02-.08.04-.15.07h-.03s-.08.05-.13.08c-.04.02-.07.04-.11.06l-.06.04s-.08.05-.12.07c-.04.03-.08.06-.12.09l-.05.04s-.06.05-.09.07c-.09.07-.17.15-.25.23l-4.39,4.39c-1.34,1.34-1.34,3.52,0,4.86.99.99,2.43,1.26,3.68.77.17.39.41.74.72,1.05.65.65,1.51,1.01,2.43,1.01,1.39,0,2.61-.83,3.15-2.05,1.25.49,2.69.21,3.68-.77Z"/>
          <path id="cabeca-2" data-name="cabeca" class="cls-2" d="M81.92,38.67c0,5.79,4.7,10.49,10.49,10.49s10.15-4.7,10.15-10.49-4.36-10.49-10.15-10.49-10.49,4.7-10.49,10.49Z"/>
        </g>
      </g>
      <g>
        <g class="cls-1">
          <path class="cls-10" d="M37,106.22c-3.79,0-7.55-3.35-7.55-7.14,0-3.52.12-3.52.12-7.04s1.17-3.52,1.17-7.04-1.43-3.52-1.43-7.04.9-3.52.9-7.04-.64-3.52-.64-7.04,1.4-3.52,1.4-7.04-.12-3.52-.12-7.04-.3-3.52-.3-7.04.4-3.52.4-7.05-.9-3.53-.9-7.05-.08-3.53-.08-7.05c0-3.79,3.26-7.25,7.05-7.25s3.84,1.2,7.67,1.2,3.84-.31,7.68-.31,3.84-1.2,7.68-1.2,3.84.85,7.68.85,3.84-.27,7.68-.27,3.84.25,7.68.25,6.12,2.95,6.12,6.74c0,3.52.25,3.52.25,7.04s-.02,3.52-.02,7.04.33,3.52.33,7.04-.52,3.52-.52,7.04.12,3.52.12,7.04.63,3.52.63,7.04.64,3.52.64,7.04-.89,3.52-.89,7.04.1,3.52.1,7.05-.8,3.53-.8,7.05.78,3.53.78,7.05c0,3.79-2.96,6.33-6.75,6.33-3.84,0-3.84.12-7.67.12s-3.84.17-7.68.17-3.84.85-7.68.85-3.84-.19-7.68-.19-3.84-.42-7.68-.33-3.84.2-7.68.2ZM37,18.82c-1.67,0-2.35,1.09-2.35,2.77,0,3.52-.12,3.52-.12,7.04s-1.17,3.52-1.17,7.04,1.43,3.52,1.43,7.04-.9,3.52-.9,7.04.64,3.52.64,7.04-1.4,3.52-1.4,7.04.12,3.52.12,7.04.3,3.52.3,7.04-.4,3.52-.4,7.05.9,3.53.9,7.05.08,3.53.08,7.05c0,1.67,1.18,2.66,2.86,2.66,3.84,0,3.84,1.2,7.67,1.2s3.84-.31,7.68-.31,3.84-1.2,7.68-1.2,3.84.85,7.68.85,3.84-.27,7.68-.27,3.84.25,7.68.25c1.67,0,3.79-1.49,3.79-3.17,0-3.52-.25-3.52-.25-7.04s.02-3.52.02-7.04-.33-3.52-.33-7.04.52-3.52.52-7.04-.12-3.52-.12-7.04-.63-3.52-.63-7.04-.64-3.52-.64-7.04.89-3.52.89-7.04-.1-3.52-.1-7.05.8-3.53.8-7.05-.78-3.53-.78-7.05c0-1.67-1.48-3.58-3.16-3.58-3.84,0-3.84.12-7.67.12s-3.84.17-7.68.17-3.84.85-7.68.85-3.84-.19-7.68-.19-3.84-.42-7.68-.33-3.84.2-7.68.2Z"/>
        </g>
        <path d="M83.07,104.53h-46.06c-3.01,0-5.45-2.45-5.45-5.45V21.59c0-3.01,2.45-5.45,5.45-5.45h46.06c3.01,0,5.45,2.45,5.45,5.45v77.49c0,3.01-2.45,5.45-5.45,5.45ZM37,17.14c-2.46,0-4.45,2-4.45,4.45v77.49c0,2.46,2,4.45,4.45,4.45h46.06c2.46,0,4.45-2,4.45-4.45V21.59c0-2.46-2-4.45-4.45-4.45h-46.06Z"/>
        <path class="cls-3" d="M83.07,104.53h-46.06c-3.01,0-5.45-2.45-5.45-5.45V21.59c0-3.01,2.45-5.45,5.45-5.45h46.06c3.01,0,5.45,2.45,5.45,5.45v77.49c0,3.01-2.45,5.45-5.45,5.45ZM37,17.14c-2.46,0-4.45,2-4.45,4.45v77.49c0,2.46,2,4.45,4.45,4.45h46.06c2.46,0,4.45-2,4.45-4.45V21.59c0-2.46-2-4.45-4.45-4.45h-46.06Z"/>
      </g>
      <g>
        <path class="cls-6" d="M79.62,92.27c1.66.23,8.7-8.14,12.61-13.98,3.91,5.84,10.22,14.79,11.97,14.17,2.71-.97-6.2-34.63-12.22-34.63s-14.72,34.12-12.35,34.45Z"/>
        <path class="cls-6" d="M118.36,62.37c.99-.99,1.26-2.43.77-3.68,1.23-.54,2.05-1.75,2.05-3.15,0-.92-.36-1.78-1.01-2.43s-1.51-1.01-2.43-1.01h-6.21c-.11,0-.23,0-.34.02-.04,0-.07,0-.14.02h-.03c-.05.01-.11.02-.16.03-.04,0-.09.02-.13.03l-.06.02s-.09.02-.13.03c-.04.01-.09.03-.13.04l-.06.02s-.08.03-.12.05c-.04.02-.08.04-.15.07h-.03s-.08.05-.13.08c-.04.02-.07.04-.11.06l-.06.04s-.08.05-.12.07c-.04.03-.08.06-.12.09l-.05.04s-.06.05-.09.07c-.09.07-.17.15-.25.23l-4.39,4.39c-1.34,1.34-1.34,3.52,0,4.86.99.99,2.43,1.26,3.68.77.17.39.41.74.72,1.05.65.65,1.51,1.01,2.43,1.01,1.39,0,2.61-.83,3.15-2.05,1.25.49,2.69.21,3.68-.77Z"/>
        <path id="cabeca-3" data-name="cabeca" class="cls-6" d="M81.92,38.67c0,5.79,4.7,10.49,10.49,10.49s10.15-4.7,10.15-10.49-4.36-10.49-10.15-10.49-10.49,4.7-10.49,10.49Z"/>
      </g>
    </g>
  </g>
</svg>