<?xml version="1.0" encoding="UTF-8"?>
<svg id="Camada_2" data-name="Camada 2" xmlns="http://www.w3.org/2000/svg" xmlns:xlink="http://www.w3.org/1999/xlink" viewBox="0 0 211.87 331.94">
  <defs>
    <style>
      .cls-1, .cls-2 {
        opacity: .24;
      }

      .cls-3 {
        fill: #fff;
      }

      .cls-4 {
        opacity: .25;
      }

      .cls-5, .cls-2, .cls-6, .cls-7, .cls-8, .cls-9, .cls-10, .cls-11 {
        stroke-linecap: round;
        stroke-linejoin: round;
      }

      .cls-5, .cls-12 {
        fill: #e3e1e0;
      }

      .cls-5, .cls-9, .cls-10 {
        stroke: #0d0802;
        stroke-width: .75px;
      }

      .cls-2, .cls-6, .cls-7, .cls-8, .cls-10, .cls-11 {
        fill: none;
      }

      .cls-2, .cls-6, .cls-7, .cls-8, .cls-11 {
        stroke: #83d0f5;
      }

      .cls-2, .cls-11 {
        stroke-width: 24px;
      }

      .cls-13 {
        clip-path: url(#clippath-1);
      }

      .cls-6, .cls-7 {
        stroke-width: 8px;
      }

      .cls-6, .cls-14 {
        opacity: .5;
      }

      .cls-15 {
        fill: #0d0802;
      }

      .cls-8 {
        stroke-width: 2px;
      }

      .cls-16, .cls-9 {
        fill: #948f8d;
      }

      .cls-17 {
        clip-path: url(#clippath-2);
      }

      .cls-18 {
        clip-path: url(#clippath);
      }
    </style>
    <clipPath id="clippath">
      <path class="cls-9" d="M139.74,116.71l-9.73,8.46-11.91,20.45h-7.56l-9.33,11.85-19.71-31.14h-.01c-3.41-3.99-6.25-3.44-6.25.15l-8.61-11.02,26.8-7.1c5.87-1.56,12.05-1.49,17.89.18l28.42,8.17Z"/>
    </clipPath>
    <clipPath id="clippath-1">
      <path class="cls-15" d="M142.51,76.74c-.27,0-.57.01-.86.01-.45.01-.9.03-1.33.06h-.06c-14.66.97-15.87,11.54-15.87,17.72-5.07,0-9.88,15.33-10.07,21.28,0-19.53-4.36-19.53-4.36,0,0-5.71-10.08-21.28-23.06-21.28,0-4.13-4.03-17.79-11.16-17.79,1.3,0,2.5-.45,3.58-1.22,1.75-1.23,2.79-3.22,3.11-5.33.89-5.98,4.97-21.52,23.24-21.52.67,0,1.35.03,2.01.08,1.81.15,3.55-.79,4.44-2.38l.33.72c.82,1.79,2.22,3.27,3.98,4.14,9.13,4.55,11.7,13.44,12.43,18.27.74,4.87,5.04,7.24,13.64,7.24Z"/>
    </clipPath>
    <clipPath id="clippath-2">
      <path class="cls-9" d="M82.62,76.74h-.86c.3,0,.58,0,.86.01,2.12.01,4.1.11,5.95.28,25.74,2.5,21.39,27.98,21.39,38.78,0-5.71-10.08-21.28-23.06-21.28,0-4.13-4.03-17.79-11.16-17.79,1.29,0,2.5-.46,3.59-1.22,1.74-1.23,2.79-3.22,3.1-5.33.88-5.99,4.96-21.52,23.25-21.52.68,0,1.35.03,2.01.08,1.82.15,3.55-.79,4.44-2.38h0c0,1.11-.01,2.17-.02,3.19-.3,22.85-4.26,27.08-29.49,27.18ZM135.5,77.04c-2.69.25-5.06.67-7.14,1.28-13.58,3.93-14.04,15.14-14.04,37.51.19-5.96,5-21.28,10.07-21.28,0-6.38,1.29-17.45,17.34-17.78-2.25.01-4.32.11-6.23.28ZM133.45,75.32c-2.47-.94-4.19-3.2-4.58-5.82-.73-4.83-3.29-13.71-12.43-18.26-1.76-.88-3.16-2.36-3.98-4.15l-.33-.72.02,3.2c.22,18.53,2.77,24.74,16.69,26.52,3.7.47,8.2.64,13.67.64-3.74,0-6.7-.53-9.07-1.42Z"/>
    </clipPath>
  </defs>
  <g id="Camada_4" data-name="Camada 4">
    <g>
      <path class="cls-5" d="M39.42,164.79c-4.52,0-8.47-2.68-10.2-6.66-4.04,1.59-8.73.69-11.93-2.5-2.11-2.11-3.27-4.91-3.27-7.88,0-2.98,1.16-5.78,3.27-7.88l14.24-14.24c.26-.26.54-.51.82-.74.09-.08.19-.15.37-.28l.08-.06c.14-.11.28-.21.43-.31.12-.08.24-.15.37-.23l.18-.11c.12-.08.25-.15.38-.22.13-.07.27-.13.4-.2l.2-.09c.13-.06.25-.12.39-.18.13-.05.27-.1.49-.18l.1-.04c.14-.05.28-.1.44-.15.13-.04.27-.07.4-.11l.22-.05c.14-.04.28-.07.43-.1.16-.03.33-.06.49-.08l.2-.03c.13-.02.25-.04.38-.05.37-.04.73-.06,1.1-.06h20.15c6.15,0,11.15,5,11.15,11.15,0,4.52-2.68,8.47-6.66,10.2.5,1.28.76,2.65.76,4.04,0,2.98-1.16,5.78-3.27,7.88-3.2,3.2-7.89,4.09-11.93,2.5-1.74,3.98-5.68,6.66-10.2,6.66Z"/>
      <path class="cls-5" d="M23.19,122.72c-3.2-3.2-4.09-7.88-2.5-11.93-3.98-1.74-6.66-5.68-6.66-10.2,0-2.98,1.16-5.78,3.27-7.88,2.11-2.11,4.91-3.27,7.88-3.27h20.14c.37,0,.74.02,1.11.05.12.01.24.03.45.06h.1c.17.04.35.06.52.1.14.03.28.06.42.1l.21.05c.14.03.28.07.43.11.14.04.28.09.42.14l.21.07c.13.05.27.09.41.15.13.05.26.12.48.22l.1.05c.14.06.27.13.41.2.12.07.24.14.36.21l.19.12c.13.07.25.15.38.23.14.09.27.19.41.29l.16.12c.1.08.21.15.31.23.28.23.56.48.82.74l14.25,14.25c4.35,4.35,4.35,11.42,0,15.77-3.2,3.2-7.88,4.09-11.93,2.5-.55,1.26-1.33,2.41-2.32,3.4-2.11,2.11-4.91,3.27-7.88,3.27-4.52,0-8.47-2.68-10.2-6.66-4.04,1.59-8.73.69-11.93-2.5Z"/>
      <path class="cls-5" d="M149.54,166.52c4.52,0,8.47-2.68,10.2-6.66,4.04,1.59,8.73.69,11.93-2.5,2.11-2.11,3.27-4.91,3.27-7.88,0-2.98-1.16-5.78-3.27-7.88l-14.24-14.24c-.26-.26-.54-.51-.82-.74-.09-.08-.19-.15-.37-.28l-.08-.06c-.14-.11-.28-.21-.43-.31-.12-.08-.24-.15-.37-.23l-.18-.11c-.12-.08-.25-.15-.38-.22-.13-.07-.27-.13-.4-.2l-.2-.09c-.13-.06-.25-.12-.39-.18-.13-.05-.27-.1-.49-.18l-.1-.04c-.14-.05-.28-.1-.44-.15-.13-.04-.27-.07-.4-.11l-.22-.05c-.14-.04-.28-.07-.43-.1-.16-.03-.33-.06-.49-.08l-.2-.03c-.13-.02-.25-.04-.38-.05-.37-.04-.73-.06-1.1-.06h-20.15c-6.15,0-11.15,5-11.15,11.15,0,4.52,2.68,8.47,6.66,10.2-.5,1.28-.76,2.65-.76,4.04,0,2.98,1.16,5.78,3.27,7.88,3.2,3.2,7.89,4.09,11.93,2.5,1.74,3.98,5.68,6.66,10.2,6.66Z"/>
      <path class="cls-5" d="M165.77,124.45c3.2-3.2,4.09-7.88,2.5-11.93,3.98-1.74,6.66-5.68,6.66-10.2,0-2.98-1.16-5.78-3.27-7.88-2.11-2.11-4.91-3.27-7.88-3.27h-20.14c-.37,0-.74.02-1.11.05-.12.01-.24.03-.45.06h-.1c-.17.04-.35.06-.52.1-.14.03-.28.06-.42.1l-.21.05c-.14.03-.28.07-.43.11-.14.04-.28.09-.42.14l-.21.07c-.13.05-.27.09-.41.15-.13.05-.26.12-.48.22l-.1.05c-.14.06-.27.13-.41.2-.12.07-.24.14-.36.21l-.19.12c-.13.07-.25.15-.38.23-.14.09-.27.19-.41.29l-.16.12c-.1.08-.21.15-.31.23-.28.23-.56.48-.82.74l-14.25,14.25c-4.35,4.35-4.35,11.42,0,15.77,3.2,3.2,7.88,4.09,11.93,2.5.55,1.26,1.33,2.41,2.32,3.4,2.11,2.11,4.91,3.27,7.88,3.27,4.52,0,8.47-2.68,10.2-6.66,4.04,1.59,8.73.69,11.93-2.5Z"/>
      <g>
        <g class="cls-1">
          <path class="cls-11" d="M117.6,37.46c1.31-6.35,12.91-14.36,21.38-20.47-26.8,17.9-36.75,15.73-23.5-4.98-13.64,20.81-29.62,27.86-37.48,16.6,7.47,11.58-5.11,23.67-29.5,28.46,24.23-4.47,22.37,5.62-4.24,23.65,26.79-17.89,36.75-15.73,23.5,4.98,13.67-20.85,29.59-27.85,37.48-16.6-7.47-11.58,5.11-23.67,29.5-28.46-7.51,1-17.59,2.66-17.14-3.18ZM107.34,48.69c-9.81,10.99-22.62,16.34-30.2,15.96-6.97-.35-9.52-5.54-1.25-15.64,9.93-11.12,22.93-16.46,30.47-15.93,6.75.47,9.12,5.66.97,15.61Z"/>
        </g>
        <g class="cls-14">
          <path class="cls-7" d="M117.6,37.46c1.31-6.35,12.91-14.36,21.38-20.47-26.8,17.9-36.75,15.73-23.5-4.98-13.64,20.81-29.62,27.86-37.48,16.6,7.47,11.58-5.11,23.67-29.5,28.46,24.23-4.47,22.37,5.62-4.24,23.65,26.79-17.89,36.75-15.73,23.5,4.98,13.67-20.85,29.59-27.85,37.48-16.6-7.47-11.58,5.11-23.67,29.5-28.46-7.51,1-17.59,2.66-17.14-3.18ZM107.34,48.69c-9.81,10.99-22.62,16.34-30.2,15.96-6.97-.35-9.52-5.54-1.25-15.64,9.93-11.12,22.93-16.46,30.47-15.93,6.75.47,9.12,5.66.97,15.61Z"/>
        </g>
        <path class="cls-8" d="M117.6,37.46c1.31-6.35,12.91-14.36,21.38-20.47-26.8,17.9-36.75,15.73-23.5-4.98-13.64,20.81-29.62,27.86-37.48,16.6,7.47,11.58-5.11,23.67-29.5,28.46,24.23-4.47,22.37,5.62-4.24,23.65,26.79-17.89,36.75-15.73,23.5,4.98,13.67-20.85,29.59-27.85,37.48-16.6-7.47-11.58,5.11-23.67,29.5-28.46-7.51,1-17.59,2.66-17.14-3.18ZM107.34,48.69c-9.81,10.99-22.62,16.34-30.2,15.96-6.97-.35-9.52-5.54-1.25-15.64,9.93-11.12,22.93-16.46,30.47-15.93,6.75.47,9.12,5.66.97,15.61Z"/>
        <path class="cls-3" d="M117.6,37.46c1.31-6.35,12.91-14.36,21.38-20.47-26.8,17.9-36.75,15.73-23.5-4.98-13.64,20.81-29.62,27.86-37.48,16.6,7.47,11.58-5.11,23.67-29.5,28.46,24.23-4.47,22.37,5.62-4.24,23.65,26.79-17.89,36.75-15.73,23.5,4.98,13.67-20.85,29.59-27.85,37.48-16.6-7.47-11.58,5.11-23.67,29.5-28.46-7.51,1-17.59,2.66-17.14-3.18ZM107.34,48.69c-9.81,10.99-22.62,16.34-30.2,15.96-6.97-.35-9.52-5.54-1.25-15.64,9.93-11.12,22.93-16.46,30.47-15.93,6.75.47,9.12,5.66.97,15.61Z"/>
      </g>
      <circle class="cls-5" cx="105.94" cy="72.63" r="22.29"/>
      <g>
        <path class="cls-5" d="M130.01,125.17c-4.87,36.45-14.23,118.01-24.07,118.01-12,0-25.76-82.3-30.7-116.7,0-14.64,21.35-16.57,30.7-16.57s24.07,5.91,24.07,15.26Z"/>
        <polyline class="cls-10" points="105.94 243.18 105.94 170.14 111.25 164.82"/>
      </g>
      <g>
        <path class="cls-16" d="M139.74,116.71l-9.73,8.46-11.91,20.45h-7.56l-9.33,11.85-19.71-31.14h-.01c-3.41-3.99-6.25-3.44-6.25.15l-8.61-11.02,26.8-7.1c5.87-1.56,12.05-1.49,17.89.18l28.42,8.17Z"/>
        <g class="cls-18">
          <g class="cls-4">
            <rect class="cls-3" x="98.02" y="88.92" width="22.56" height="89.53" transform="translate(-62.52 116.44) rotate(-45)"/>
            <rect class="cls-3" x="123.2" y="75.01" width="4.83" height="89.53" transform="translate(-47.91 123.9) rotate(-45)"/>
          </g>
        </g>
        <path class="cls-10" d="M139.74,116.71l-9.73,8.46-11.91,20.45h-7.56l-9.33,11.85-19.71-31.14h-.01c-3.41-3.99-6.25-3.44-6.25.15l-8.61-11.02,26.8-7.1c5.87-1.56,12.05-1.49,17.89.18l28.42,8.17Z"/>
      </g>
      <g id="olho1">
        <path class="cls-3" d="M125.63,79.44c-.22,9-8.38,10.19-17.26,9.97-8.88-.22-16.91-4.37-16.75-10.8.25-10.29,8.06-18.12,17.45-17.89,9.39.23,16.81,8.43,16.56,18.72Z"/>
        <g>
          <path class="cls-15" d="M115.24,77.38c-.69,5.33-1.25,9.64-4.43,9.23-3.19-.41-2.63-4.73-1.94-10.06.69-5.33,1.25-9.64,4.43-9.23s2.63,4.73,1.94,10.06Z"/>
          <path class="cls-3" d="M107.81,74.68c2.86.37,5.18.67,4.96,2.38s-2.54,1.41-5.4,1.04c-2.86-.37-5.18-.67-4.96-2.38.22-1.71,2.54-1.41,5.4-1.04Z"/>
        </g>
      </g>
      <g>
        <g>
          <path class="cls-15" d="M142.51,76.74c-.27,0-.57.01-.86.01-.45.01-.9.03-1.33.06h-.06c-14.66.97-15.87,11.54-15.87,17.72-5.07,0-9.88,15.33-10.07,21.28,0-19.53-4.36-19.53-4.36,0,0-5.71-10.08-21.28-23.06-21.28,0-4.13-4.03-17.79-11.16-17.79,1.3,0,2.5-.45,3.58-1.22,1.75-1.23,2.79-3.22,3.11-5.33.89-5.98,4.97-21.52,23.24-21.52.67,0,1.35.03,2.01.08,1.81.15,3.55-.79,4.44-2.38l.33.72c.82,1.79,2.22,3.27,3.98,4.14,9.13,4.55,11.7,13.44,12.43,18.27.74,4.87,5.04,7.24,13.64,7.24Z"/>
          <g class="cls-13">
            <g>
              <path class="cls-2" d="M112.24,92.7l-.11.33-.11-.33c-1.1-3.35-1.06-7.17.11-10.48h0s0,0,0,0c1.17,3.31,1.21,7.13.11,10.48Z"/>
              <path class="cls-6" d="M112.24,92.7l-.11.33-.11-.33c-1.1-3.35-1.06-7.17.11-10.48h0s0,0,0,0c1.17,3.31,1.21,7.13.11,10.48Z"/>
              <path class="cls-8" d="M112.24,92.7l-.11.33-.11-.33c-1.1-3.35-1.06-7.17.11-10.48h0s0,0,0,0c1.17,3.31,1.21,7.13.11,10.48Z"/>
              <path class="cls-3" d="M112.24,92.7l-.11.33-.11-.33c-1.1-3.35-1.06-7.17.11-10.48h0s0,0,0,0c1.17,3.31,1.21,7.13.11,10.48Z"/>
            </g>
          </g>
        </g>
        <g>
          <path class="cls-16" d="M82.62,76.74h-.86c.3,0,.58,0,.86.01,2.12.01,4.1.11,5.95.28,25.74,2.5,21.39,27.98,21.39,38.78,0-5.71-10.08-21.28-23.06-21.28,0-4.13-4.03-17.79-11.16-17.79,1.29,0,2.5-.46,3.59-1.22,1.74-1.23,2.79-3.22,3.1-5.33.88-5.99,4.96-21.52,23.25-21.52.68,0,1.35.03,2.01.08,1.82.15,3.55-.79,4.44-2.38h0c0,1.11-.01,2.17-.02,3.19-.3,22.85-4.26,27.08-29.49,27.18ZM135.5,77.04c-2.69.25-5.06.67-7.14,1.28-13.58,3.93-14.04,15.14-14.04,37.51.19-5.96,5-21.28,10.07-21.28,0-6.38,1.29-17.45,17.34-17.78-2.25.01-4.32.11-6.23.28ZM133.45,75.32c-2.47-.94-4.19-3.2-4.58-5.82-.73-4.83-3.29-13.71-12.43-18.26-1.76-.88-3.16-2.36-3.98-4.15l-.33-.72.02,3.2c.22,18.53,2.77,24.74,16.69,26.52,3.7.47,8.2.64,13.67.64-3.74,0-6.7-.53-9.07-1.42Z"/>
          <g class="cls-17">
            <g class="cls-4">
              <rect class="cls-3" x="90.35" y="40.72" width="19.65" height="77.99" transform="translate(-27.03 94.19) rotate(-45)"/>
              <rect class="cls-3" x="112.29" y="28.61" width="4.21" height="77.99" transform="translate(-14.3 100.69) rotate(-45)"/>
            </g>
          </g>
          <path class="cls-10" d="M82.62,76.74h-.86c.3,0,.58,0,.86.01,2.12.01,4.1.11,5.95.28,25.74,2.5,21.39,27.98,21.39,38.78,0-5.71-10.08-21.28-23.06-21.28,0-4.13-4.03-17.79-11.16-17.79,1.29,0,2.5-.46,3.59-1.22,1.74-1.23,2.79-3.22,3.1-5.33.88-5.99,4.96-21.52,23.25-21.52.68,0,1.35.03,2.01.08,1.82.15,3.55-.79,4.44-2.38h0c0,1.11-.01,2.17-.02,3.19-.3,22.85-4.26,27.08-29.49,27.18ZM135.5,77.04c-2.69.25-5.06.67-7.14,1.28-13.58,3.93-14.04,15.14-14.04,37.51.19-5.96,5-21.28,10.07-21.28,0-6.38,1.29-17.45,17.34-17.78-2.25.01-4.32.11-6.23.28ZM133.45,75.32c-2.47-.94-4.19-3.2-4.58-5.82-.73-4.83-3.29-13.71-12.43-18.26-1.76-.88-3.16-2.36-3.98-4.15l-.33-.72.02,3.2c.22,18.53,2.77,24.74,16.69,26.52,3.7.47,8.2.64,13.67.64-3.74,0-6.7-.53-9.07-1.42Z"/>
        </g>
      </g>
      <g>
        <g>
          <path class="cls-12" d="M69.91,203.13c-3.65,0-7.08-1.42-9.66-4s-4-6.01-4-9.65,1.42-7.08,4-9.66c2.58-2.58,6.01-4,9.66-4s7.08,1.42,9.66,4c5.32,5.32,5.32,13.99,0,19.31-2.58,2.58-6.01,4-9.66,4Z"/>
          <path class="cls-15" d="M69.91,176.2c3.4,0,6.8,1.3,9.39,3.89,5.19,5.19,5.19,13.59,0,18.78-2.59,2.59-5.99,3.89-9.39,3.89s-6.8-1.3-9.39-3.89c-5.19-5.19-5.19-13.59,0-18.78,2.59-2.59,5.99-3.89,9.39-3.89M69.91,175.45c-3.75,0-7.27,1.46-9.92,4.11-5.47,5.47-5.47,14.37,0,19.84,2.65,2.65,6.17,4.11,9.92,4.11s7.27-1.46,9.92-4.11c2.65-2.65,4.11-6.17,4.11-9.92s-1.46-7.27-4.11-9.92c-2.65-2.65-6.17-4.11-9.92-4.11h0Z"/>
        </g>
        <g>
          <path class="cls-2" d="M26.43,204.92c29.15-29.15,27.65-28.13-14.43-72.85,44.45,42.07,43.67,43.61,72.86,14.42-15.5,15.5-22.77,22.77-17.87,34.51,2.46,5.88,9.74,7.93,14.95,4.27,3.37-2.37,7.24-6.22,12.42-11.4-20.26,20.26-18.12,18.01,105.51,146.07-127.73-123.59-125.83-125.75-146.07-105.51,5.33-5.33,9.25-9.27,11.6-12.71,3.51-5.14,1.27-12.25-4.48-14.65-11.74-4.9-19.02,2.38-34.5,17.86Z"/>
          <path class="cls-6" d="M26.43,204.92c29.15-29.15,27.65-28.13-14.43-72.85,44.45,42.07,43.67,43.61,72.86,14.42-15.5,15.5-22.77,22.77-17.87,34.51,2.46,5.88,9.74,7.93,14.95,4.27,3.37-2.37,7.24-6.22,12.42-11.4-20.26,20.26-18.12,18.01,105.51,146.07-127.73-123.59-125.83-125.75-146.07-105.51,5.33-5.33,9.25-9.27,11.6-12.71,3.51-5.14,1.27-12.25-4.48-14.65-11.74-4.9-19.02,2.38-34.5,17.86Z"/>
          <path class="cls-8" d="M26.43,204.92c29.15-29.15,27.65-28.13-14.43-72.85,44.45,42.07,43.67,43.61,72.86,14.42-15.5,15.5-22.77,22.77-17.87,34.51,2.46,5.88,9.74,7.93,14.95,4.27,3.37-2.37,7.24-6.22,12.42-11.4-20.26,20.26-18.12,18.01,105.51,146.07-127.73-123.59-125.83-125.75-146.07-105.51,5.33-5.33,9.25-9.27,11.6-12.71,3.51-5.14,1.27-12.25-4.48-14.65-11.74-4.9-19.02,2.38-34.5,17.86Z"/>
          <path class="cls-3" d="M26.43,204.92c29.15-29.15,27.65-28.13-14.43-72.85,44.45,42.07,43.67,43.61,72.86,14.42-15.5,15.5-22.77,22.77-17.87,34.51,2.46,5.88,9.74,7.93,14.95,4.27,3.37-2.37,7.24-6.22,12.42-11.4-20.26,20.26-18.12,18.01,105.51,146.07-127.73-123.59-125.83-125.75-146.07-105.51,5.33-5.33,9.25-9.27,11.6-12.71,3.51-5.14,1.27-12.25-4.48-14.65-11.74-4.9-19.02,2.38-34.5,17.86Z"/>
        </g>
        <path class="cls-12" d="M60.52,180.09c5.19-5.19,13.59-5.19,18.78,0,5.19,5.19-4.66,3.75-9.84,8.94-5.19,5.19-3.75,15.03-8.94,9.84-5.19-5.19-5.19-13.59,0-18.78Z"/>
      </g>
    </g>
  </g>
</svg>