<?xml version="1.0" encoding="UTF-8"?>
<svg id="Camada_2" xmlns="http://www.w3.org/2000/svg" viewBox="0 0 97.83 89.38">
  <defs>
    <style>
      .cls-1 {
        fill: #fff;
      }

      .cls-2 {
        fill: #0d0802;
      }

      .cls-3, .cls-4 {
        fill: #948f8d;
      }

      .cls-4 {
        stroke: #0d0802;
        stroke-linecap: round;
        stroke-linejoin: round;
        stroke-width: .75px;
      }

      .cls-5 {
        opacity: .1;
      }
    </style>
  </defs>
  <g id="Caramelo">
    <g>
      <g class="cls-5">
        <ellipse class="cls-2" cx="42.23" cy="81.74" rx="38.28" ry="7.64"/>
      </g>
      <path class="cls-4" d="M68.7,45.91c-1.79,18.01-2.56,38.86-5.1,35.12-6.05-8.91-11.59-28.96-3.74-40.4"/>
      <path class="cls-4" d="M46.1,42.53c-5.28-1.77-9.73.36-11.27,4.62-.67,1.86-1.1,3.88-1.3,5.88-4.62,1.82-3.61,9.35-3.61,13.08,0,5.64,4.01,15.64,6.16,15.64,1.82,0,1.29-4.2,1.29-12.47,0-.95.13-2.33.28-3.9,3.5.52,10.69-5.59,13.18-12.46"/>
      <path class="cls-4" d="M66.68,51.67c2.93-4.38,2.8-10.34-.71-14.63-4.3-5.25-12.05-6.02-17.3-1.72-5.43,4.45-9.48,4.17-12.73,3.3-6.56-1.75-13.3,2.15-15.05,8.71-1.75,6.56,2.15,13.3,8.71,15.05,12.26,3.27,24.24.49,34.65-8.04.96-.79,1.77-1.69,2.43-2.68Z"/>
      <path class="cls-4" d="M29.5,42.53c-5.28-1.77-9.73.36-11.27,4.62-.67,1.86-1.1,3.88-1.3,5.88-4.62,1.82-3.61,9.35-3.61,13.08,0,5.64,4.01,15.64,6.16,15.64,1.82,0,1.29-4.2,1.29-12.47,0-.95.13-2.33.28-3.9,3.5.52,10.69-5.59,13.18-12.46"/>
      <path class="cls-4" d="M19.76,37.2c-2.6-4.45-6.03-2.76-8.28-4.66-.37.88.37,2.3,1.45,2.52-7.7-.33-15.41,7.3-11.5,15.61.16-1.01.37-1.63,1.03-2.32,0,7.64,3.39,8.89,6.73,13.21.16-.59-.1-1.56-.43-2.02,5.26,2.02,11.37,1.12,14.38-2.31-.84-.11-1.98-.89-2.2-1.44,1.27.16,3.16-.64,3.8-1.6-4.29-.02-3.05-2.91-8.16-2.86.31-.6,1.92-1.22,2.8-.95-1.42-2.34-3.34-1.42-5.2-3.43-2.49-2.68-.02-9.12,5.6-9.75Z"/>
      <path class="cls-4" d="M58.61,50.89c-1.79,18.01-1.79,33.88-4.33,30.14-6.05-8.91-11.59-28.96-3.74-40.4"/>
      <g>
        <path class="cls-4" d="M86.84,15.74c3.2-3.2-1.54-13.47-6.87-14.93-.62-.17-1.23.29-1.28.93-.42,5.35-3.85,6.05-3.85,11.15-3.37-.28-7.52,1.18-9.4,3.97-.14.21,0,.49.25.52,1.87.22,4.38,1.35,5.57,2.64-3.41-.82-6.87.47-7.68,4.67-.05.25.19.45.44.38,2.48-.72,5.7-.68,7.87.33-1.57.1-2.94,1.16-3.56,2.38-.11.23.04.49.3.5,1.28.04,4.64.31,6.21,1.87"/>
        <path class="cls-4" d="M67.15,30.15l4.32,4.32c7,7,18.68,3.86,23.29-.74s3.27-7.23-3.29-13.78l-7.06-7.06c-4.76-4.77-12.49-4.77-17.26,0-4.77,4.77-4.77,12.5,0,17.26Z"/>
        <path class="cls-4" d="M76.96,14.17c2.71-3.63-3.45-13.11-8.94-13.79-.64-.08-1.18.46-1.14,1.11.35,5.35-2.94,6.54-2.21,11.58-3.38.2-7.28,2.25-8.73,5.27-.11.22.07.48.32.48,1.88-.05,4.53.71,5.89,1.81-3.49-.32-6.73,1.45-6.93,5.72-.01.26.26.42.49.31,2.36-1.06,5.54-1.49,7.84-.8-1.54.32-2.74,1.57-3.18,2.86-.08.24.11.48.37.46,1.27-.14,4.64-.36,6.41.96"/>
        <g id="olho1">
          <path class="cls-1" d="M93.67,24.02c.29,4.48-3.71,5.44-8.14,5.72-4.42.29-8.6-1.42-8.81-4.63-.33-5.13,3.2-9.36,7.88-9.67,4.68-.3,8.73,3.44,9.06,8.57Z"/>
          <g>
            <path class="cls-2" d="M89.57,22.54c-.11,2.68-.19,4.85-1.8,4.78-1.6-.06-1.51-2.23-1.41-4.91s.19-4.85,1.8-4.78c1.6.06,1.51,2.23,1.41,4.91Z"/>
            <path class="cls-1" d="M85.76,22.63c1.44.06,2.6.1,2.57.96s-1.2.81-2.64.76c-1.44-.06-2.6-.1-2.57-.96.03-.86,1.2-.81,2.64-.76Z"/>
          </g>
          <path class="cls-3" d="M90.3,15.95c1.68,1.13,1.39,3.7-.53,4.36-1.15.4-2.52.61-3.99.58-3.79-.09-6.85-1.79-7.09-3.86,1.59-1.56,3.64-2.48,5.86-2.63.19,0,.39-.01.6-.01,1.9,0,3.67.57,5.15,1.57Z"/>
        </g>
      </g>
      <path class="cls-4" d="M34.14,19.45c0-1.68,1-3.16,2.48-3.8-.59-1.51-.26-3.25.93-4.44.78-.78,1.83-1.22,2.94-1.22s2.15.43,2.94,1.22l5.31,5.31c.1.1.19.2.28.31.03.04.06.07.1.14l.02.03c.04.05.08.1.12.16.03.05.06.09.08.14l.04.07s.06.09.08.14c.03.05.05.1.07.15l.03.07s.05.09.07.15c.02.05.04.1.07.18v.04c.03.05.05.11.07.16.02.05.03.1.04.15l.02.08c.01.05.03.11.04.16.01.06.02.12.03.18v.07s.03.09.03.14c.01.14.02.27.02.41v7.51c0,2.29-1.86,4.15-4.15,4.15-1.68,0-3.16-1-3.8-2.48-.48.19-.99.28-1.51.28-1.11,0-2.15-.43-2.94-1.22-1.19-1.19-1.52-2.94-.93-4.44-1.48-.65-2.48-2.12-2.48-3.8Z"/>
    </g>
  </g>
</svg>